{"title":"Shetland S03E01 x264 RB58.mp4","uid":13228591,"size":658731802,"categoryP":"video","categoryS":"tv_shows","magnet":"?xt=urn:btih:04df10280e0b87553c0a73fdc0ef8394ff68cd0c&amp;dn=Shetland+S03E01+x264+RB58.mp4&amp;tr=udp%3A%2F%2Ftracker.leechers-paradise.org%3A6969&amp;tr=udp%3A%2F%2Fzer0day.ch%3A1337&amp;tr=udp%3A%2F%2Fopen.demonii.com%3A1337&amp;tr=udp%3A%2F%2Ftracker.coppersurfer.tk%3A6969&amp;tr=udp%3A%2F%2Fexodus.desync.com%3A6969","seeders":0,"leechers":1,"uploader":"RedBaron58","files":1,"time":1452907353,"description":"Shetland S03E01 x264 mp4\r\n \nhttp://www.imdb.com/title/tt2396135/\r\n\r\nTrailer:\r\n\r\n\r\nPlease be patient My intial upload speed is limited.\r\nThank you for your kind comments and feedback on my other torrents, your feedback is welcome.\r\n\r\n\r\nAbout the Episode:\r\nA passenger on the Aberdeen to Shetland ferry witnesses an altercation between two men, \r\none of whom subsequently goes missing, while a young boy is admitted to intensive care after \r\nconsuming pills he mistook for sweets found on the beach. \r\nDI Jimmy Perez searches the shoreline and recovers a rucksack containing more pills and a \r\nferry ticket which a hooded figure tries to snatch from him. \r\nNow a connected missing persons and drugs case, matters gather pace after a body is found \r\nin grisly circumstances. \r\nA single full-length story told over six episodes.\r\n \r\nStarring Douglas Henshall, with Ciaran Hinds\r\n\r\n\r\nI hope you enjoy.\r\n\r\n\r\nTechnical:\r\n\r\nGeneral\r\nComplete name                            : G:Shetland S03E01 x264 RB58.mp4\r\nFormat                                   : MPEG-4\r\nFormat profile                           : Base Media\r\nCodec ID                                 : isom\r\nFile size                                : 628 MiB\r\nDuration                                 : 57mn 46s\r\nOverall bit rate                         : 1 520 Kbps\r\nWriting application                      : Lavf54.63.104\r\n\r\nVideo\r\nID                                       : 1\r\nFormat                                   : AVC\r\nFormat/Info                              : Advanced Video Codec\r\nFormat profile                           :   \r\nFormat settings, CABAC                   : Yes\r\nFormat settings, ReFrames                : 4 frames\r\nCodec ID                                 : avc1\r\nCodec ID/Info                            : Advanced Video Coding\r\nDuration                                 : 57mn 46s\r\nBit rate                                 : 1 400 Kbps\r\nWidth                                    : 832 pixels\r\nHeight                                   : 468 pixels\r\nDisplay aspect ratio                     : 16:9\r\nFrame rate mode                          : Constant\r\nFrame rate                               : 25.000 fps\r\nColor space                              : YUV\r\nChroma subsampling                       : 4:2:0\r\nBit depth                                : 8 bits\r\nScan type                                : Progressive\r\nBits/(Pixel*Frame)                       : 0.144\r\nStream size                              : 578 MiB (92%)\r\nWriting library                          : x264 core 123 r2189 35cf912\r\nEncoding settings                        : cabac=1 / ref=3 / deblock=1:0:0\r\n\r\nAudio\r\nID                                       : 2\r\nFormat                                   : AAC\r\nFormat/Info                              : Advanced Audio Codec\r\nFormat profile                           : LC\r\nCodec ID                                 : 40\r\nDuration                                 : 57mn 46s\r\nBit rate mode                            : Constant\r\nBit rate                                 : 112 Kbps\r\nChannel(s)                               : 2 channels\r\nChannel positions                        : Front: L R\r\nSampling rate                            : 48.0 KHz\r\nCompression mode                         : Lossy\r\nStream size                              : 46.3 MiB (7%)","torrent":{"xt":"urn:btih:04df10280e0b87553c0a73fdc0ef8394ff68cd0c","amp;dn":"Shetland+S03E01+x264+RB58.mp4","amp;tr":["udp%3A%2F%2Ftracker.leechers-paradise.org%3A6969","udp%3A%2F%2Fzer0day.ch%3A1337","udp%3A%2F%2Fopen.demonii.com%3A1337","udp%3A%2F%2Ftracker.coppersurfer.tk%3A6969","udp%3A%2F%2Fexodus.desync.com%3A6969"],"infoHash":"04df10280e0b87553c0a73fdc0ef8394ff68cd0c","infoHashBuffer":{"type":"Buffer","data":[4,223,16,40,14,11,135,85,60,10,115,253,192,239,131,148,255,104,205,12]},"announce":[],"urlList":[]}}